HIERARCHY
ROOT RootJoint
{
    OFFSET   0.000000   0.000000   0.000000
    CHANNELS 6 Xposition Yposition Zposition Xrotation Yrotation Zrotation
    JOINT pelvis_lowerback
    {
        OFFSET   0.000000   0.093605   0.000000
        CHANNELS 3 Xrotation Yrotation Zrotation
        JOINT lowerback_torso
        {
            OFFSET   0.000000   0.100000   0.000000
            CHANNELS 3 Xrotation Yrotation Zrotation
            JOINT torso_head
            {
                OFFSET   0.000000   0.282350   0.000000
                CHANNELS 3 Xrotation Yrotation Zrotation
                End Site
                {
                    OFFSET   0.000000   0.192650   0.000000
                }
            }
            JOINT rTorso_Clavicle
            {
                OFFSET  -0.001000   0.157500   0.000000
                CHANNELS 3 Xrotation Yrotation Zrotation
                JOINT rShoulder
                {
                    OFFSET  -0.117647   0.000000   0.000000
                    CHANNELS 3 Xrotation Yrotation Zrotation
                    JOINT rElbow
                    {
                        OFFSET  -0.245000   0.000000   0.000000
                        CHANNELS 3 Xrotation Yrotation Zrotation
                        JOINT rWrist
                        {
                            OFFSET  -0.240000   0.000000   0.000000
                            CHANNELS 3 Xrotation Yrotation Zrotation
                            End Site
                            {
                                OFFSET  -0.116353  -0.002500   0.000000
                            }
                        }
                    }
                }
            }
            JOINT lTorso_Clavicle
            {
                OFFSET   0.001000   0.157500   0.000000
                CHANNELS 3 Xrotation Yrotation Zrotation
                JOINT lShoulder
                {
                    OFFSET   0.117647   0.000000   0.000000
                    CHANNELS 3 Xrotation Yrotation Zrotation
                    JOINT lElbow
                    {
                        OFFSET   0.245000   0.000000   0.000000
                        CHANNELS 3 Xrotation Yrotation Zrotation
                        JOINT lWrist
                        {
                            OFFSET   0.240000   0.000000   0.000000
                            CHANNELS 3 Xrotation Yrotation Zrotation
                            End Site
                            {
                                OFFSET   0.116353  -0.002500   0.000000
                            }
                        }
                    }
                }
            }
        }
    }
    JOINT rHip
    {
        OFFSET  -0.100000  -0.051395   0.000000
        CHANNELS 3 Xrotation Yrotation Zrotation
        JOINT rKnee
        {
            OFFSET   0.000000  -0.410000   0.000000
            CHANNELS 3 Xrotation Yrotation Zrotation
            JOINT rAnkle
            {
                OFFSET   0.000000  -0.390000   0.000000
                CHANNELS 3 Xrotation Yrotation Zrotation
                JOINT rToeJoint
                {
                    OFFSET   0.000000  -0.050000   0.130000
                    CHANNELS 3 Xrotation Yrotation Zrotation
                    End Site
                    {
                        OFFSET  -0.010000   0.002000   0.060000
                    }
                }
            }
        }
    }
    JOINT lHip
    {
        OFFSET   0.100000  -0.051395   0.000000
        CHANNELS 3 Xrotation Yrotation Zrotation
        JOINT lKnee
        {
            OFFSET   0.000000  -0.410000   0.000000
            CHANNELS 3 Xrotation Yrotation Zrotation
            JOINT lAnkle
            {
                OFFSET   0.000000  -0.390000   0.000000
                CHANNELS 3 Xrotation Yrotation Zrotation
                JOINT lToeJoint
                {
                    OFFSET   0.000000  -0.050000   0.130000
                    CHANNELS 3 Xrotation Yrotation Zrotation
                    End Site
                    {
                        OFFSET   0.010000   0.002000   0.060000
                    }
                }
            }
        }
    }
}
MOTION
Frames: 7
Frame Time:   0.008333
 -2.376719   0.925631   3.975860   0.000000   0.000000   0.000000   0.000000   0.000000   0.000000   0.000000   0.000000   0.000000   0.000000   0.000000   0.000000   0.000000   0.000000   0.000000   0.000000   0.000000   0.000000   0.000000   0.000000   0.000000   0.000000   0.000000   0.000000   0.000000   0.000000   0.000000   0.000000   0.000000   0.000000   0.000000   0.000000   0.000000   0.000000   0.000000   0.000000   0.000000   0.000000   0.000000   0.000000   0.000000   0.000000   0.000000   0.000000   0.000000   0.000000   0.000000   0.000000   0.000000   0.000000   0.000000   0.000000   0.000000   0.000000   0.000000   0.000000   0.000000   0.000000   0.000000   0.000000
 -2.376695   0.925252   3.973800  -0.101606  -0.027857   0.116733   0.627651   0.026177  -0.183138   0.101444  -0.105642   0.014199  -0.221336  -0.011934  -0.013582   0.305340  -0.505201  -0.678879   1.613984  -0.398125   2.130619   0.047376   3.672652  -0.082597  -0.252159  -0.921565  -0.930612   0.283803   0.703323   0.469962   2.284798   0.520055  -1.674216   0.043631  -3.696096   0.104052  -0.267977   0.736634   0.846673  -1.090769  -0.015937  -0.298834   3.093705   0.004881  -0.001426  -2.037403  -0.313163  -0.058608  -0.165525  -0.000349   0.000516  -1.176050  -0.034686   0.042427   3.275435  -0.004602  -0.001674  -2.131973   0.236934   0.139430   0.051112  -0.000133   0.000076
 -2.376699   0.924592   3.971483  -0.379164  -0.101991   0.242457   1.392841   0.066104  -0.378783   0.434646  -0.187510   0.015003  -0.351265  -0.027547  -0.035451   0.607927  -0.972424  -0.990020   3.141463  -0.648912   4.410398   0.113715   7.449333  -0.154764  -0.418393  -0.905887  -1.412467   0.572030   1.393231   0.611988   4.445789   0.910612  -3.502081   0.109115  -7.484653   0.193081  -0.428702   0.575079   1.361234  -2.068950  -0.032005  -0.748450   6.331288   0.012736  -0.005088  -3.924781  -0.610736  -0.125053  -0.332357  -0.000854   0.000997  -2.255975  -0.063332   0.223503   6.698367  -0.013143  -0.003335  -4.107394   0.459351   0.280010   0.080187  -0.000220   0.000092
 -2.376714   0.923475   3.969078  -0.681613  -0.199259   0.362266   2.176009   0.112815  -0.568916   0.836224  -0.249586   0.011602  -0.442448  -0.042729  -0.059904   0.891303  -1.368018  -1.047804   4.570827  -0.790046   6.716356   0.186139  11.245129  -0.212217  -0.567630  -0.633548  -1.523332   0.843461   2.013003   0.522754   6.470574   1.186431  -5.383951   0.183157 -11.286882   0.263343  -0.572017   0.192744   1.540522  -2.976998  -0.043160  -1.307979   9.397684   0.021160  -0.009871  -5.682285  -0.889264  -0.197279  -0.472602  -0.001315   0.001313  -3.279363  -0.092774   0.530756   9.936507  -0.023058  -0.003643  -5.947189   0.664807   0.419671   0.119064  -0.000369   0.000107
 -2.376731   0.921790   3.966670  -0.972010  -0.305889   0.474192   2.950222   0.161590  -0.750333   1.252383  -0.298489   0.006849  -0.517260  -0.056963  -0.084156   1.157204  -1.701765  -0.937760   5.906685  -0.839673   8.991294   0.257591  15.051184  -0.257218  -0.712426  -0.279319  -1.361583   1.099881   2.565120   0.278872   8.366786   1.357798  -7.265168   0.258040 -15.096999   0.318143  -0.711405  -0.253114   1.453644  -3.832265  -0.045124  -1.953060  12.258944   0.028945  -0.014974  -7.323260  -1.149142  -0.273784  -0.604314  -0.001756   0.001543  -4.262419  -0.127642   0.941757  12.953439  -0.032695  -0.002414  -7.665229   0.854192   0.557184   0.150941  -0.000480   0.000112
 -2.376744   0.919457   3.964323  -1.242572  -0.414835   0.578407   3.703868   0.209886  -0.922396   1.665544  -0.338258   0.001497  -0.582234  -0.070209  -0.107235   1.407403  -1.986669  -0.717843   7.153727  -0.815071  11.199967   0.324195  18.863937  -0.292315  -0.856449   0.103846  -1.007481   1.342960   3.059464  -0.065511  10.141309   1.439319  -9.109019   0.329349 -18.912903   0.360814  -0.850536  -0.719293   1.171915  -4.637406  -0.035091  -2.663693  14.923760   0.035514  -0.019908  -8.856106  -1.391036  -0.353193  -0.729849  -0.002157   0.001703  -5.205901  -0.171254   1.435176  15.758073  -0.041123   0.000022  -9.270264   1.028460   0.691610   0.174738  -0.000537   0.000110
 -2.376753   0.916420   3.962080  -1.492311  -0.522656   0.675421   4.430052   0.256500  -1.085170   2.068130  -0.371245  -0.004241  -0.639720  -0.082508  -0.128852   1.643432  -2.234730  -0.428065   8.316750  -0.732497  13.321096   0.384059  22.680833  -0.319702  -1.001094   0.491348  -0.520644   1.573990   3.506799  -0.472179  11.800620   1.447044 -10.891810   0.394798 -22.732711   0.394146  -0.990890  -1.185432   0.752256  -5.392599  -0.011779  -3.422362  17.406631   0.040633  -0.024379 -10.287962  -1.615758  -0.434309  -0.848892  -0.002497   0.001802  -6.107820  -0.225611   1.992007  18.365955  -0.047890   0.003200 -10.769721   1.188553   0.822255   0.192018  -0.000549   0.000104
